<svg xmlns="http://www.w3.org/2000/svg" width="58.67" height="60.67" viewBox="0 0 88 91"><g><g><path fill="#bbedff" d="M87.496 88.979H64.874l-6.9-6.78c-7.642 5.32-16.283 7.98-25.923 7.98-9.76 0-17.501-2.24-23.221-6.72C3.108 78.978.249 72.918.249 65.276c0-5.48 1.21-10.15 3.63-14.011 2.42-3.86 6.57-7.47 12.451-10.83-3-3.44-5.18-6.73-6.54-9.872-1.36-3.14-2.04-6.57-2.04-10.29 0-6.08 2.33-10.981 6.99-14.702 4.66-3.72 10.89-5.58 18.691-5.58 7.441 0 13.39 1.73 17.852 5.19 4.46 3.46 6.69 8.092 6.69 13.891 0 4.761-1.38 9.112-4.14 13.051-2.76 3.941-7.221 7.691-13.381 11.251l17.041 16.622c2.84-4.68 5.3-10.701 7.381-18.062h19.081a86.424 86.424 0 0 1-5.94 15.811c-2.52 5.141-5.38 9.691-8.58 13.652zM19.51 63.537c0 3.44 1.29 6.18 3.87 8.22 2.58 2.04 5.89 3.06 9.931 3.06 5.04 0 9.58-1.219 13.621-3.66L27.011 51.357c-2.32 1.76-4.15 3.6-5.49 5.52-1.341 1.92-2.01 4.14-2.01 6.661zm21.542-42.543c0-2.12-.72-3.79-2.16-5.01-1.44-1.22-3.3-1.831-5.58-1.831-2.681 0-4.792.64-6.331 1.92-1.54 1.28-2.31 3.1-2.31 5.46 0 3.521 1.9 7.402 5.7 11.641 3.44-1.92 6.08-3.81 7.92-5.67 1.84-1.86 2.761-4.03 2.761-6.51z"/></g></g></svg>