<svg width="32" height="29" viewBox="0 0 32 29" fill="none" xmlns="http://www.w3.org/2000/svg">
          <path d="M30.2656 3.60156H10.5781V5.00781H30.2656V3.60156Z" fill="white"/>
          <path d="M30.2656 13.7969H10.5781V15.2031H30.2656V13.7969Z" fill="white"/>
          <path d="M30.2656 23.9922H10.5781V25.3984H30.2656V23.9922Z" fill="white"/>
          <path d="M4.95312 2.19531C5.72656 2.19531 6.35938 2.82812 6.35938 3.60156V5.00781C6.35938 5.78125 5.72656 6.41406 4.95312 6.41406H3.54688C2.77344 6.41406 2.14062 5.78125 2.14062 5.00781V3.60156C2.14062 2.82812 2.77344 2.19531 3.54688 2.19531H4.95312ZM4.95312 0.789062H3.54688C2 0.789062 0.734375 2.05469 0.734375 3.60156V5.00781C0.734375 6.55469 2 7.82031 3.54688 7.82031H4.95312C6.5 7.82031 7.76562 6.55469 7.76562 5.00781V3.60156C7.76562 2.05469 6.5 0.789062 4.95312 0.789062Z" fill="white"/>
          <path d="M4.95312 12.3906C5.72656 12.3906 6.35938 13.0234 6.35938 13.7969V15.2031C6.35938 15.9766 5.72656 16.6094 4.95312 16.6094H3.54688C2.77344 16.6094 2.14062 15.9766 2.14062 15.2031V13.7969C2.14062 13.0234 2.77344 12.3906 3.54688 12.3906H4.95312ZM4.95312 10.9844H3.54688C2 10.9844 0.734375 12.25 0.734375 13.7969V15.2031C0.734375 16.75 2 18.0156 3.54688 18.0156H4.95312C6.5 18.0156 7.76562 16.75 7.76562 15.2031V13.7969C7.76562 12.25 6.5 10.9844 4.95312 10.9844Z" fill="white"/>
          <path d="M4.95312 22.5859C5.72656 22.5859 6.35938 23.2187 6.35938 23.9922V25.3984C6.35938 26.1719 5.72656 26.8047 4.95312 26.8047H3.54688C2.77344 26.8047 2.14062 26.1719 2.14062 25.3984V23.9922C2.14062 23.2187 2.77344 22.5859 3.54688 22.5859H4.95312ZM4.95312 21.1797H3.54688C2 21.1797 0.734375 22.4453 0.734375 23.9922V25.3984C0.734375 26.9453 2 28.2109 3.54688 28.2109H4.95312C6.5 28.2109 7.76562 26.9453 7.76562 25.3984V23.9922C7.76562 22.4453 6.5 21.1797 4.95312 21.1797Z" fill="white"/>
</svg>